<svg aria-hidden="true" style="position: absolute; width: 0; height: 0; overflow: hidden;" version="1.1" xmlns="http://www.w3.org/2000/svg" xmlns:xlink="http://www.w3.org/1999/xlink">
<defs>
<symbol viewBox="0 0 30 31" fill="none" xmlns="http://www.w3.org/2000/svg" id='whatsapp'>
  <path d="M0 30.1432L2.11881 22.4027C0.811354 20.1369 0.124341 17.5684 0.125597 14.9347C0.129364 6.70058 6.82994 0 15.0628 0C19.058 0.00125597 22.8083 1.5574 25.6292 4.38081C28.4489 7.20422 30.0013 10.957 30 14.9485C29.9962 23.1839 23.2957 29.8845 15.0628 29.8845C12.5634 29.8832 10.1005 29.2565 7.91886 28.0658L0 30.1432V30.1432ZM8.28561 25.3617C10.3906 26.6114 12.4001 27.36 15.0578 27.3612C21.9003 27.3612 27.4743 21.7923 27.478 14.946C27.4805 8.08591 21.9329 2.52449 15.0678 2.52198C8.2203 2.52198 2.65009 8.09093 2.64758 14.9359C2.64632 17.7305 3.46521 19.8229 4.84049 22.0121L3.58578 26.5938L8.28561 25.3617V25.3617ZM22.5873 18.4991C22.4943 18.3434 22.2457 18.2504 21.8714 18.0633C21.4984 17.8762 19.6634 16.9731 19.3205 16.8488C18.9789 16.7244 18.7302 16.6616 18.4803 17.0359C18.2316 17.4089 17.5157 18.2504 17.2984 18.4991C17.0811 18.7478 16.8626 18.7792 16.4896 18.5921C16.1166 18.4049 14.9133 18.0118 13.4878 16.7395C12.3788 15.7498 11.629 14.5278 11.4117 14.1535C11.1944 13.7805 11.3891 13.5782 11.575 13.3924C11.7433 13.2253 11.948 12.9565 12.1351 12.738C12.3248 12.522 12.3863 12.3662 12.5119 12.1163C12.6363 11.8676 12.5747 11.6491 12.4805 11.4619C12.3863 11.2761 11.6403 9.43858 11.3301 8.69128C11.0261 7.96408 10.7184 8.06204 10.4898 8.05074L9.77393 8.03818C9.52524 8.03818 9.12082 8.13112 8.7792 8.5054C8.43758 8.87968 7.473 9.78146 7.473 11.6189C7.473 13.4564 8.8106 15.2311 8.99648 15.4798C9.18362 15.7285 11.6277 19.4989 15.3718 21.1153C16.2622 21.4996 16.958 21.7295 17.4994 21.9015C18.3936 22.1854 19.2075 22.1452 19.8505 22.0497C20.5677 21.943 22.0585 21.1467 22.37 20.2751C22.6815 19.4022 22.6815 18.6549 22.5873 18.4991V18.4991Z" fill="white" fill-opacity="1"/>
  </symbol>
<symbol id="icon-speed" viewBox="0 0 24 24">
<path d="M12 15.984q-0.797 0-1.406-0.586t-0.609-1.383q0-0.844 0.609-1.453l8.484-5.625-5.672 8.484q-0.563 0.563-1.406 0.563zM20.391 8.578q0.656 1.031 1.125 2.625t0.469 2.813q0 2.766-1.313 4.969-0.609 1.031-1.734 1.031h-13.875q-1.125 0-1.734-1.031-1.313-2.203-1.313-4.969 0-4.125 2.93-7.055t7.102-2.93q1.219 0 2.789 0.469t2.602 1.125l-1.875 1.219q-1.688-0.844-3.563-0.844-3.281 0-5.648 2.344t-2.367 5.672q0 2.156 1.078 3.984h13.875q1.078-1.828 1.078-3.984 0-1.922-0.844-3.609z"></path>
</symbol>
<symbol id="icon-devices" viewBox="0 0 24 24">
<path d="M21.984 17.016v-7.031h-3.984v7.031h3.984zM23.016 8.016q0.422 0 0.703 0.281t0.281 0.703v9.984q0 0.422-0.281 0.727t-0.703 0.305h-6q-0.422 0-0.727-0.305t-0.305-0.727v-9.984q0-0.422 0.305-0.703t0.727-0.281h6zM3.984 6v11.016h10.031v3h-14.016v-3h2.016v-11.016q0-0.797 0.586-1.406t1.383-0.609h18v2.016h-18z"></path>
</symbol>
<symbol id="icon-light-bulb" viewBox="0 0 20 20">
<path d="M7.186 19.172c0.789 0.51 1.701 0.855 2.814 0.828 1.111 0.027 2.025-0.318 2.814-0.828l-0.017-2.172h-5.594l-0.017 2.172zM12.697 16c0-4.357 4.63-5.848 4.283-10.188-0.218-2.738-2.073-5.81-6.98-5.81s-6.762 3.072-6.981 5.811c-0.347 4.339 4.284 5.83 4.284 10.187h5.394zM5 6c0.207-2.598 2.113-4 5-4s4.654 1.371 4.861 3.969c0.113 1.424-0.705 2.373-1.809 3.926-0.814 1.146-1.603 2.343-2.052 4.105h-2c-0.449-1.762-1.238-2.959-2.053-4.106-1.103-1.552-2.061-2.47-1.947-3.894z"></path>
</symbol>
<symbol id="icon-mail" viewBox="0 0 20 20">
<path d="M1.574 5.286c0.488 0.262 7.248 3.894 7.5 4.029s0.578 0.199 0.906 0.199c0.328 0 0.654-0.064 0.906-0.199s7.012-3.767 7.5-4.029c0.489-0.263 0.951-1.286 0.054-1.286h-16.919c-0.897 0-0.435 1.023 0.053 1.286zM18.613 7.489c-0.555 0.289-7.387 3.849-7.727 4.027s-0.578 0.199-0.906 0.199-0.566-0.021-0.906-0.199-7.133-3.739-7.688-4.028c-0.39-0.204-0.386 0.035-0.386 0.219s0 7.293 0 7.293c0 0.42 0.566 1 1 1h16c0.434 0 1-0.58 1-1 0 0 0-7.108 0-7.292s0.004-0.423-0.387-0.219z"></path>
</symbol>
<symbol id="icon-rocket" viewBox="0 0 32 32">
<path d="M22 2l-10 10h-6l-6 8c0 0 6.357-1.77 10.065-0.94l-10.065 12.94 13.184-10.255c1.839 4.208-1.184 10.255-1.184 10.255l8-6v-6l10-10 2-10-10 2z"></path>
</symbol>
<symbol id="icon-github" viewBox="0 0 32 32">
<path d="M16 0.395c-8.836 0-16 7.163-16 16 0 7.069 4.585 13.067 10.942 15.182 0.8 0.148 1.094-0.347 1.094-0.77 0-0.381-0.015-1.642-0.022-2.979-4.452 0.968-5.391-1.888-5.391-1.888-0.728-1.849-1.776-2.341-1.776-2.341-1.452-0.993 0.11-0.973 0.11-0.973 1.606 0.113 2.452 1.649 2.452 1.649 1.427 2.446 3.743 1.739 4.656 1.33 0.143-1.034 0.558-1.74 1.016-2.14-3.554-0.404-7.29-1.777-7.29-7.907 0-1.747 0.625-3.174 1.649-4.295-0.166-0.403-0.714-2.030 0.155-4.234 0 0 1.344-0.43 4.401 1.64 1.276-0.355 2.645-0.532 4.005-0.539 1.359 0.006 2.729 0.184 4.008 0.539 3.054-2.070 4.395-1.64 4.395-1.64 0.871 2.204 0.323 3.831 0.157 4.234 1.026 1.12 1.647 2.548 1.647 4.295 0 6.145-3.743 7.498-7.306 7.895 0.574 0.497 1.085 1.47 1.085 2.963 0 2.141-0.019 3.864-0.019 4.391 0 0.426 0.288 0.925 1.099 0.768 6.354-2.118 10.933-8.113 10.933-15.18 0-8.837-7.164-16-16-16z"></path>
</symbol>
<symbol id="icon-linkedin" viewBox="0 0 32 32">
<path d="M29 0h-26c-1.65 0-3 1.35-3 3v26c0 1.65 1.35 3 3 3h26c1.65 0 3-1.35 3-3v-26c0-1.65-1.35-3-3-3zM12 26h-4v-14h4v14zM10 10c-1.106 0-2-0.894-2-2s0.894-2 2-2c1.106 0 2 0.894 2 2s-0.894 2-2 2zM26 26h-4v-8c0-1.106-0.894-2-2-2s-2 0.894-2 2v8h-4v-14h4v2.481c0.825-1.131 2.087-2.481 3.5-2.481 2.488 0 4.5 2.238 4.5 5v9z"></path>
</symbol>
</defs>
</svg>
